<svg width="800" height="600" xmlns="http://www.w3.org/2000/svg">
 <!-- Created with Method Draw - http://github.com/duopixel/Method-Draw/ -->
 <g>
  <title>background</title>
  <rect fill="#fff" id="canvas_background" height="602" width="802" y="-1" x="-1"/>
  <g display="none" overflow="visible" y="0" x="0" height="100%" width="100%" id="canvasGrid">
   <rect fill="url(#gridpattern)" stroke-width="0" y="0" x="0" height="100%" width="100%"/>
  </g>
 </g>
 <g>
  <title>Layer 1</title>
  <path id="svg_37" d="m199.65515,299.62284l199.65523,199.68755l0,-200.00002" opacity="0.5" fill-opacity="null" stroke-width="NaN" stroke="#000000" fill="#00ffff"/>
  <path id="svg_36" d="m200.34481,299.62284c0,0 199.31037,-190.34485 199.31037,-190.34485c0,0 0,190.34485 0,190.34485" opacity="0.5" stroke-width="NaN" stroke="#00ffff" fill="#00ffff"/>
  <rect id="svg_16" height="200" width="200" y="299.62284" x="399.65517" stroke-width="0" fill="#5fbf00"/>
  <line stroke-linecap="undefined" stroke-linejoin="undefined" id="svg_2" y2="599.60936" x2="400" y1="0.32369" x1="399.64286" stroke-width="1.5" stroke="#000" fill="none"/>
  <line stroke-linecap="undefined" stroke-linejoin="undefined" id="svg_3" y2="200.32368" x2="966.78567" y1="199.60939" x1="966.78567" stroke-width="1.5" stroke="#000" fill="none"/>
  <line stroke-linecap="undefined" stroke-linejoin="undefined" id="svg_4" y2="300" x2="700" y1="300" x1="100" stroke-width="1.5" stroke="#000" fill="none"/>
  <line stroke-linecap="undefined" stroke-linejoin="undefined" id="svg_6" y2="15" x2="385" y1="0.32355" x1="399.64284" stroke-width="1.5" stroke="#000" fill="none"/>
  <line stroke-linecap="undefined" stroke-linejoin="undefined" id="svg_7" y2="15" x2="385" y1="0.32355" x1="399.64284" stroke-width="1.5" stroke="#000" fill="none"/>
  <line transform="rotate(-90 407.3215942382813,7.661773204803439) " stroke-linecap="undefined" stroke-linejoin="undefined" id="svg_11" y2="15" x2="400.00001" y1="0.32355" x1="414.64284" stroke-width="1.5" stroke="#000" fill="none"/>
  <line transform="rotate(-90 692.3275146484376,291.9468383789063) " stroke-linecap="undefined" stroke-linejoin="undefined" id="svg_12" y2="299.28582" x2="685.00013" y1="284.60936" x1="699.64297" stroke-width="1.5" stroke="#000" fill="none"/>
  <line stroke-linecap="undefined" stroke-linejoin="undefined" id="svg_13" y2="315.00003" x2="685.00003" y1="300.32358" x1="699.64287" stroke-width="1.5" stroke="#000" fill="none"/>
  <line stroke-linecap="undefined" stroke-linejoin="undefined" id="svg_14" y2="315.00003" x2="685.00003" y1="300.32358" x1="699.64287" stroke-width="1.5" stroke="#000" fill="none"/>
  <line stroke="#000000" stroke-linecap="null" stroke-linejoin="null" id="svg_17" y2="290" x2="599.65519" y1="310" x1="600" fill="none"/>
  <line stroke="#000000" stroke-linecap="null" stroke-linejoin="null" id="svg_18" y2="290" x2="499.65518" y1="310" x1="499.99999" fill="none"/>
  <line stroke="#000000" stroke-linecap="null" stroke-linejoin="null" id="svg_19" y2="290" x2="299.65516" y1="310" x1="299.99997" fill="none"/>
  <line stroke="#000000" stroke-linecap="null" stroke-linejoin="null" id="svg_20" y2="290" x2="199.65515" y1="310" x1="199.99996" fill="none"/>
  <line transform="rotate(90 399.82965087890625,390.3463439941407) " stroke="#000000" stroke-linecap="null" stroke-linejoin="null" id="svg_23" y2="380.34484" x2="399.65517" y1="400.34484" x1="399.99998" fill="none"/>
  <line transform="rotate(90 399.8296508789063,500.00335693359375) " stroke="#000000" stroke-linecap="null" stroke-linejoin="null" id="svg_24" y2="490.00002" x2="399.65517" y1="510.00002" x1="399.99998" fill="none"/>
  <line transform="rotate(90 399.8296508789063,190.3444519042969) " stroke="#000000" stroke-linecap="null" stroke-linejoin="null" id="svg_25" y2="180.34482" x2="399.65517" y1="200.34482" x1="399.99998" fill="none"/>
  <line transform="rotate(90 399.82965087890625,109.65522766113286) " stroke="#000000" stroke-linecap="null" stroke-linejoin="null" id="svg_26" y2="99.65515" x2="399.65517" y1="119.65515" x1="399.99998" fill="none"/>
  <path id="svg_28" d="m199.65515,299.62284" opacity="0.5" fill-opacity="null" stroke-opacity="null" stroke-width="null" stroke="#000000" fill="none"/>
  <path id="svg_30" d="m199.65515,299.62284" opacity="0.5" fill-opacity="null" stroke-opacity="null" stroke-width="null" stroke="#000000" fill="none"/>
  <path stroke="#000000" id="svg_33" d="m199.65514,299.27799c2.06897,-184.15903 200.68969,-189.65632 200.34489,-189.96765" opacity="0.5" stroke-opacity="null" stroke-width="NaN" fill="#00ffff"/>
  <path id="svg_34" d="m200.34481,299.62284" opacity="0.5" stroke-opacity="null" stroke-width="NaN" stroke="#000000" fill="#00ffff"/>
  <text xml:space="preserve" text-anchor="start" font-family="Helvetica, Arial, sans-serif" font-size="24" id="svg_38" y="118.24351" x="415.51724" fill-opacity="null" stroke-width="0" stroke="#000000" fill="#000000">R</text>
  <text style="cursor: move;" xml:space="preserve" text-anchor="start" font-family="Helvetica, Arial, sans-serif" font-size="24" id="svg_39" y="198.24352" x="415.51724" fill-opacity="null" stroke-width="0" stroke="#000000" fill="#000000">R/2</text>
  <text style="cursor: move;" xml:space="preserve" text-anchor="start" font-family="Helvetica, Arial, sans-serif" font-size="24" id="svg_40" y="281.00215" x="480.34484" fill-opacity="null" stroke-width="0" stroke="#000000" fill="#000000">R/2</text>
  <text xml:space="preserve" text-anchor="start" font-family="Helvetica, Arial, sans-serif" font-size="24" id="svg_41" y="281.00215" x="590.00002" fill-opacity="null" stroke-width="0" stroke="#000000" fill="#000000">R</text>
 </g>
</svg>